<?xml version="1.0" standalone="no"?>
<!DOCTYPE svg PUBLIC "-//W3C//DTD SVG 20010904//EN"
 "http://www.w3.org/TR/2001/REC-SVG-20010904/DTD/svg10.dtd">
<svg version="1.0" xmlns="http://www.w3.org/2000/svg"
 width="2000.000000pt" height="2000.000000pt" viewBox="0 0 2000.000000 2000.000000"
 preserveAspectRatio="xMidYMid meet">
<metadata>
Created by potrace 1.14, written by Peter Selinger 2001-2017
</metadata>
<g transform="translate(0.000000,2000.000000) scale(0.100000,-0.100000)"
fill="#000000" stroke="none">
<path d="M9689 17066 c-2 -2 -65 -7 -139 -10 -74 -4 -148 -9 -165 -11 -16 -1
-57 -6 -90 -9 -66 -7 -137 -15 -175 -21 -14 -2 -52 -6 -85 -10 -65 -7 -91 -11
-175 -25 -30 -5 -69 -12 -86 -15 -25 -4 -250 -49 -354 -71 -73 -15 -384 -98
-468 -125 -131 -41 -420 -138 -457 -154 -16 -7 -61 -25 -100 -40 -38 -15 -79
-31 -90 -36 -11 -4 -83 -36 -160 -69 -142 -62 -474 -226 -566 -280 -27 -17
-52 -30 -54 -30 -3 0 -67 -38 -259 -155 -425 -260 -854 -602 -1241 -990 -223
-222 -315 -322 -452 -488 -47 -56 -94 -113 -106 -127 -65 -77 -256 -340 -362
-500 -447 -674 -773 -1417 -969 -2205 -39 -158 -86 -380 -100 -470 -2 -16 -9
-59 -15 -95 -6 -36 -13 -83 -16 -105 -3 -22 -8 -51 -10 -65 -3 -14 -7 -45 -10
-70 -3 -25 -7 -61 -9 -80 -3 -19 -7 -62 -11 -95 -3 -33 -8 -78 -10 -100 -27
-252 -27 -984 0 -1215 2 -19 7 -69 10 -110 3 -41 8 -91 10 -110 13 -103 17
-127 21 -151 2 -15 6 -47 9 -70 28 -230 124 -666 220 -994 122 -420 362 -992
580 -1380 15 -27 38 -69 50 -91 129 -234 363 -585 554 -829 110 -141 113 -145
131 -164 8 -9 31 -37 51 -61 232 -285 691 -731 1019 -991 167 -133 462 -344
595 -425 276 -169 349 -212 475 -278 268 -142 491 -244 770 -353 126 -50 575
-200 621 -208 15 -3 40 -10 54 -15 14 -5 36 -12 48 -14 12 -3 87 -20 167 -39
80 -20 192 -45 250 -56 58 -12 116 -23 130 -26 22 -5 170 -29 240 -40 102 -15
240 -32 325 -40 17 -1 68 -6 115 -11 105 -11 1072 -12 1195 -1 122 10 249 25
375 43 58 8 121 17 140 19 19 3 46 7 60 10 13 2 40 7 60 10 20 3 47 8 60 10
14 3 39 8 55 11 27 5 290 61 325 70 8 2 35 8 60 14 94 23 392 111 525 155 92
31 222 78 250 90 17 7 68 27 115 45 497 191 1049 495 1545 853 116 84 323 244
340 262 6 7 68 61 140 121 133 112 485 456 612 599 310 350 580 711 797 1070
37 61 71 117 76 125 6 8 13 22 17 30 4 8 29 53 56 100 74 127 234 455 305 625
35 83 67 159 73 170 10 23 42 109 105 285 60 167 171 546 204 695 7 28 13 57
15 65 3 13 36 173 50 243 3 15 7 37 10 50 19 95 57 360 70 487 4 30 8 69 10
86 21 154 29 1081 12 1269 -14 146 -25 255 -32 309 -3 17 -7 54 -10 81 -3 28
-8 61 -10 75 -3 14 -7 39 -9 55 -18 110 -27 163 -31 185 -3 14 -8 41 -11 60
-3 19 -21 107 -40 195 -20 88 -37 170 -40 181 -23 117 -157 551 -236 762 -104
280 -297 707 -410 907 -13 22 -41 72 -62 110 -99 177 -267 441 -389 610 -78
108 -243 327 -272 360 -42 49 -57 67 -114 135 -131 158 -447 486 -607 630 -33
30 -80 73 -105 95 -43 39 -143 125 -184 158 -11 9 -49 40 -85 69 -141 115
-488 361 -625 445 -11 7 -67 41 -125 77 -411 253 -954 503 -1440 662 -121 40
-358 108 -530 153 -232 60 -736 146 -972 166 -18 1 -60 6 -93 9 -33 4 -94 9
-135 12 -83 6 -796 15 -801 10z"/>
</g>
</svg>
